<svg width="50" height="42" xmlns="http://www.w3.org/2000/svg" xmlns:xlink="http://www.w3.org/1999/xlink" xml:space="preserve" overflow="hidden"><defs><clipPath id="clip0"><rect x="547" y="339" width="50" height="42"/></clipPath></defs><g clip-path="url(#clip0)" transform="translate(-547 -339)"><path d="M13.6791 2.32965 35.2434 2.32965 35.2434 5.1969 13.6791 5.1969 13.6791 2.32965Z" fill="#194261" transform="matrix(1 0 0 1.00016 548.026 339)"/><path d="M17.2633 30.4049 38.1106 30.4049 38.1106 33.2721 17.2633 33.2721 17.2633 30.4049Z" fill="#194261" transform="matrix(1 0 0 1.00016 548.026 339)"/><path d="M17.2633 8.8407 39.0663 8.8407 40.7987 11.708 17.2633 11.708 17.2633 8.8407Z" fill="#194261" transform="matrix(1 0 0 1.00016 548.026 339)"/><path d="M22.9978 22.4602 44.084 22.4602 45.9955 19.5929 22.9978 19.5929 22.9978 22.4602Z" fill="#194261" transform="matrix(1 0 0 1.00016 548.026 339)"/><path d="M13.6791 36.8562 34.5265 36.8562 34.5265 39.7234 13.6791 39.7234 13.6791 36.8562Z" fill="#194261" transform="matrix(1 0 0 1.00016 548.026 339)"/><path d="M16.1283 3.76327 5.31637 22.4602 2.80752 21.0265 13.6791 2.32965 16.1881 3.76327Z" fill="#194261" transform="matrix(1 0 0 1.00016 548.026 339)"/><path d="M23.3562 3.76327 12.5443 22.4602 10.0354 21.0265 20.8474 2.32965 23.3562 3.76327Z" fill="#194261" transform="matrix(1 0 0 1.00016 548.026 339)"/><path d="M27.0597 16.0088 23.3562 22.4602 20.8474 21.0265 24.5509 14.5752 27.0597 16.0088Z" fill="#194261" transform="matrix(1 0 0 1.00016 548.026 339)"/><path d="M13.6791 39.7234 2.86725 21.0265 5.37611 19.5929 16.1881 38.2897 13.6791 39.7234Z" fill="#194261" transform="matrix(1 0 0 1.00016 548.026 339)"/><path d="M20.8474 39.7234 10.0354 21.0265 12.5443 19.5929 23.3562 38.2897 20.8474 39.7234Z" fill="#194261" transform="matrix(1 0 0 1.00016 548.026 339)"/><path d="M24.6106 27.5375 20.8474 21.0265 23.3562 19.5929 27.1194 26.104 24.6106 27.5375Z" fill="#194261" transform="matrix(1 0 0 1.00016 548.026 339)"/><path d="M29.3296 31.1216 35.542 20.5487 38.469 21.0863 31.8384 32.615 29.3296 31.1814Z" fill="#194261" transform="matrix(1 0 0 1.00016 548.026 339)"/><path d="M32.0177 38.2897 42.8296 19.5929 46.1747 19.5929C46.1747 19.5929 34.5862 39.7234 34.5862 39.7234L32.0774 38.2897Z" fill="#194261" transform="matrix(1 0 0 1.00016 548.026 339)"/><path d="M35.2434 2.32965 39.9027 10.2146 37.3937 11.6482 32.7345 3.76327 35.2434 2.32965Z" fill="#194261" transform="matrix(1 0 0 1.00016 548.026 339)"/><path d="M58.3606 17.8009C57.7034 17.8009 57.1062 17.6814 56.5088 17.4425 55.9115 17.2035 55.3739 16.8451 54.9558 16.4269 54.4778 15.9491 54.1194 15.4115 53.8805 14.7544 53.6415 14.0974 53.5221 13.3208 53.5221 12.4247 53.5221 11.5287 53.7611 10.3341 54.1792 9.49778 54.5973 8.72123 55.1946 8.06415 55.9712 7.64601 56.688 7.22787 57.5243 6.98893 58.4203 6.98893 59.7345 6.98893 60.8097 7.28761 61.5862 7.94468 62.3628 8.54203 62.8406 9.43805 63.1393 10.573L61.1681 10.8716C60.9889 10.2743 60.6902 9.79645 60.2721 9.43805 59.8539 9.07964 59.3164 8.90043 58.6593 8.90043 58.0021 8.90043 57.4646 9.0199 57.0464 9.31858 56.6283 9.61724 56.2699 10.0354 56.0906 10.573 55.8517 11.1106 55.792 11.708 55.792 12.4845 55.792 13.261 55.9115 13.7987 56.0906 14.3363 56.3296 14.8738 56.6283 15.2921 57.0464 15.5907 57.4646 15.8894 58.0021 16.0088 58.6593 16.0685 59.0774 16.0685 59.4955 16.0088 59.8539 15.8296 60.2124 15.6504 60.5111 15.4115 60.7499 15.0531 60.9889 14.6947 61.1681 14.2765 61.2875 13.6791L59.6747 13.6791 59.6747 12.1859 63.3783 12.1859C63.3783 12.2456 63.3783 12.365 63.3783 12.5443 63.3783 12.7234 63.3783 12.7832 63.3783 12.8429 63.3783 13.8584 63.199 14.6947 62.7809 15.4712 62.3628 16.2478 61.8252 16.8451 61.0486 17.2633 60.3318 17.6814 59.4358 17.9203 58.48 17.9203Z" fill="#194261" transform="matrix(1 0 0 1.00016 548.026 339)"/><path d="M64.8119 17.5619 64.8119 6.98893 66.7831 6.98893 66.7831 17.5619 64.8119 17.5619Z" fill="#194261" transform="matrix(1 0 0 1.00016 548.026 339)"/><path d="M72.4579 17.8009C71.6814 17.8009 70.9646 17.6216 70.427 17.2633 69.8296 16.9049 69.3517 16.4269 69.053 15.8296 68.7543 15.2322 68.5752 14.5155 68.5752 13.6791 68.5752 12.8429 68.7543 12.1859 69.053 11.5287 69.4114 10.9315 69.8296 10.4535 70.427 10.0951 71.0243 9.73671 71.6814 9.55752 72.4579 9.55752 73.2345 9.55752 73.9512 9.73671 74.4889 10.0951 75.0862 10.4535 75.564 10.9315 75.8627 11.5287 76.2212 12.1261 76.3406 12.8429 76.3406 13.6194 76.3406 14.396 76.1614 15.1128 75.8627 15.7699 75.5043 16.3672 75.0862 16.8451 74.4889 17.2035 73.8915 17.5619 73.2345 17.7412 72.4579 17.7412ZM72.4579 15.9491C73.115 15.9491 73.5331 15.7102 73.8318 15.2921 74.1305 14.8738 74.3096 14.3363 74.3096 13.6791 74.3096 13.0221 74.1305 12.4247 73.8318 12.0066 73.5331 11.5885 73.0552 11.4093 72.4579 11.4093 71.8605 11.4093 71.6814 11.5287 71.3827 11.708 71.084 11.8872 70.9048 12.1859 70.7853 12.4845 70.6659 12.8429 70.6061 13.2013 70.6061 13.6791 70.6061 14.396 70.7853 14.9337 71.084 15.3518 71.3827 15.7699 71.8605 15.9491 72.4579 15.9491Z" fill="#194261" transform="matrix(1 0 0 1.00016 548.026 339)"/><path d="M81.7765 17.8009C80.9999 17.8009 80.3429 17.6216 79.8649 17.2633 79.3274 16.9049 78.9689 16.4269 78.6703 15.7699 78.4314 15.1725 78.2521 14.4557 78.2521 13.6791 78.2521 12.9027 78.3717 12.1859 78.6703 11.5885 78.9689 10.9912 79.3274 10.4535 79.8052 10.0951 80.2831 9.73671 80.9402 9.55752 81.657 9.55752 82.3739 9.55752 83.0309 9.73671 83.5685 10.0951 84.1061 10.4535 84.5243 10.9315 84.823 11.5287 85.1217 12.1261 85.3008 12.8429 85.3008 13.6194 85.3008 14.396 85.1217 15.1128 84.823 15.7102 84.5243 16.3075 84.1061 16.8451 83.5685 17.2035 83.0309 17.5619 82.4336 17.7412 81.7167 17.7412ZM77.9535 17.5619 77.9535 7.22787 79.9247 7.22787 79.9247 12.2456 79.6858 12.2456 79.6858 17.5619 77.9535 17.5619ZM81.4778 16.0088C81.8959 16.0088 82.2543 15.8894 82.4933 15.7102 82.7323 15.5309 82.9712 15.2322 83.0906 14.8738 83.2101 14.5155 83.2699 14.0974 83.2699 13.6791 83.2699 13.261 83.2101 12.8429 83.0906 12.4845 82.9712 12.1261 82.7323 11.8274 82.4933 11.6482 82.1946 11.4093 81.8362 11.3496 81.4181 11.3496 80.9999 11.3496 80.7012 11.469 80.4026 11.6482 80.1636 11.8274 79.9845 12.1261 79.8649 12.4845 79.7455 12.8429 79.6858 13.261 79.6858 13.739 79.6858 14.2168 79.6858 14.635 79.8649 14.9934 79.9845 15.3518 80.1636 15.6504 80.4026 15.8296 80.6415 16.0088 80.9999 16.1283 81.4778 16.1283Z" fill="#194261" transform="matrix(1 0 0 1.00016 548.026 339)"/><path d="M89.0641 17.8009C88.5265 17.8009 88.0486 17.6814 87.6305 17.5022 87.2721 17.2633 86.9734 17.0243 86.7345 16.6659 86.5552 16.3075 86.4358 15.8894 86.4358 15.4712 86.4358 15.0531 86.4358 14.7544 86.6149 14.5155 86.7345 14.2168 86.9136 13.9778 87.1526 13.739 87.3915 13.5 87.7499 13.3208 88.168 13.1416 88.4667 13.0221 88.8252 12.9624 89.1836 12.8429 89.6017 12.7832 90.0198 12.6637 90.5574 12.604 91.0353 12.5443 91.6327 12.4247 92.23 12.365L91.5132 12.7234C91.5132 12.2456 91.3937 11.9469 91.1548 11.708 90.9158 11.469 90.5574 11.4093 90.0198 11.4093 89.4823 11.4093 89.4224 11.469 89.1239 11.5885 88.8252 11.708 88.5862 11.9469 88.4667 12.3053L86.6747 11.7677C86.8539 11.1106 87.2123 10.6328 87.8096 10.2146 88.3473 9.79645 89.0641 9.61724 90.0198 9.61724 90.9756 9.61724 91.334 9.73671 91.8717 9.91592 92.4092 10.1549 92.8274 10.5133 93.0663 10.9912 93.2455 11.2898 93.3052 11.5885 93.3649 11.8274 93.3649 12.1261 93.3649 12.4247 93.3649 12.7832L93.3649 17.5022 91.6327 17.5022 91.6327 15.8894 91.8717 16.2478C91.5132 16.7854 91.0951 17.1438 90.6171 17.3827 90.199 17.6216 89.6017 17.7412 88.9446 17.7412ZM89.4823 16.2478C89.8406 16.2478 90.1393 16.1881 90.3783 16.0685 90.6171 15.9491 90.7964 15.7699 90.9756 15.6504 91.0951 15.4712 91.2145 15.3518 91.2742 15.2322 91.3937 14.9934 91.4535 14.7544 91.4535 14.5155 91.4535 14.2168 91.4535 13.9778 91.4535 13.7987L92.0508 13.9181C91.4535 14.0376 90.9756 14.0974 90.6171 14.1571 90.2588 14.2168 89.9601 14.2765 89.7212 14.3363 89.4823 14.3363 89.303 14.4557 89.1239 14.5155 88.9446 14.5752 88.7654 14.6947 88.6459 14.7544 88.5265 14.8141 88.4667 14.9337 88.407 15.0531 88.407 15.1725 88.3473 15.2921 88.3473 15.4115 88.3473 15.5309 88.3473 15.7699 88.4667 15.8894 88.5862 16.0088 88.7057 16.1283 88.8252 16.1881 89.0043 16.2478 89.1836 16.3075 89.4224 16.3075Z" fill="#194261" transform="matrix(1 0 0 1.00016 548.026 339)"/><path d="M95.4557 17.5619 95.4557 6.98893 97.4269 6.98893 97.4269 17.5619 95.4557 17.5619Z" fill="#194261" transform="matrix(1 0 0 1.00016 548.026 339)"/><path d="M102.564 17.5619 102.564 7.22787 104.535 7.22787 104.535 17.5619 102.564 17.5619Z" fill="#194261" transform="matrix(1 0 0 1.00016 548.026 339)"/><path d="M112.002 17.5619 112.002 13.9181C112.002 13.739 112.002 13.5 112.002 13.261 112.002 12.9624 111.943 12.7234 111.823 12.4247 111.703 12.1261 111.584 11.8872 111.345 11.708 111.106 11.5287 110.807 11.4093 110.39 11.4093 109.971 11.4093 110.031 11.4093 109.852 11.469 109.672 11.469 109.493 11.6482 109.315 11.7677 109.135 11.8872 109.015 12.1261 108.896 12.4247 108.776 12.7234 108.716 13.0819 108.716 13.5597L107.582 13.0221C107.582 12.4247 107.701 11.8274 107.94 11.2898 108.179 10.7522 108.538 10.3341 109.075 9.97566 109.553 9.61724 110.21 9.49778 110.987 9.49778 111.763 9.49778 112.062 9.61724 112.48 9.79645 112.839 9.97566 113.137 10.2743 113.376 10.573 113.615 10.8716 113.734 11.23 113.854 11.5885 113.974 11.9469 113.974 12.2456 114.033 12.5443 114.033 12.8429 114.033 13.0221 114.033 13.1416L114.033 17.5022 112.062 17.5022ZM106.685 17.5619 106.685 9.79645 108.418 9.79645 108.418 12.365 108.657 12.365 108.657 17.5619 106.685 17.5619Z" fill="#194261" transform="matrix(1 0 0 1.00016 548.026 339)"/><path d="M117.916 17.5619 115.108 9.79645 117.08 9.79645 118.932 15.1725 120.783 9.79645 122.754 9.79645 119.947 17.5619 117.976 17.5619Z" fill="#194261" transform="matrix(1 0 0 1.00016 548.026 339)"/><path d="M127.354 17.8009C126.577 17.8009 125.861 17.6216 125.263 17.2633 124.666 16.9049 124.188 16.4269 123.83 15.8296 123.471 15.2322 123.291 14.5155 123.291 13.739 123.291 12.9624 123.471 12.1261 123.769 11.5287 124.128 10.8716 124.546 10.3938 125.144 10.0951 125.741 9.73671 126.398 9.55752 127.174 9.55752 127.951 9.55752 128.668 9.73671 129.265 10.1549 129.863 10.5133 130.28 11.0509 130.52 11.7677 130.819 12.4845 130.879 13.261 130.819 14.2168L128.907 14.2168 128.907 13.5C128.907 12.7234 128.787 12.1261 128.549 11.7677 128.309 11.4093 127.892 11.23 127.294 11.23 126.697 11.23 126.159 11.4093 125.8 11.8274 125.502 12.2456 125.323 12.8429 125.323 13.6194 125.323 14.396 125.502 14.9337 125.8 15.2921 126.099 15.7102 126.577 15.8894 127.174 15.8894 127.772 15.8894 127.892 15.8296 128.13 15.6504 128.429 15.4712 128.608 15.2322 128.727 14.9337L130.699 15.4712C130.401 16.1881 129.923 16.7256 129.326 17.1438 128.668 17.5619 128.011 17.7412 127.234 17.7412ZM124.785 14.2168 124.785 12.7832 129.923 12.7832 129.923 14.2168 124.785 14.2168Z" fill="#194261" transform="matrix(1 0 0 1.00016 548.026 339)"/><path d="M135.478 17.8009C134.522 17.8009 133.686 17.5619 133.088 17.1438 132.491 16.7256 132.132 16.0685 132.013 15.2322L133.985 14.9337C134.044 15.2921 134.223 15.5907 134.522 15.7699 134.82 15.9491 135.179 16.0685 135.597 16.0685 136.015 16.0685 136.254 16.0088 136.434 15.8894 136.613 15.7699 136.732 15.5309 136.732 15.2921 136.732 15.0531 136.732 14.9934 136.613 14.9337 136.553 14.8141 136.374 14.7544 136.075 14.635 135.837 14.5155 135.418 14.396 134.82 14.2765 134.163 14.0974 133.686 13.9181 133.328 13.739 132.969 13.5597 132.67 13.3208 132.491 13.0221 132.311 12.7234 132.252 12.4247 132.252 12.0066 132.252 11.5885 132.372 11.0509 132.61 10.6925 132.85 10.3341 133.208 10.0354 133.686 9.85618 134.163 9.67698 134.701 9.55752 135.298 9.55752 135.896 9.55752 136.434 9.67698 136.912 9.85618 137.39 10.0354 137.747 10.3341 138.046 10.6328 138.345 10.9912 138.524 11.4093 138.584 11.8274L136.613 12.1859C136.613 11.8872 136.434 11.6482 136.254 11.5287 136.015 11.3496 135.776 11.2898 135.359 11.23 135 11.23 134.701 11.23 134.462 11.3496 134.223 11.469 134.163 11.6482 134.163 11.8872 134.163 12.1261 134.163 12.1261 134.283 12.2456 134.403 12.365 134.582 12.4247 134.881 12.5443 135.179 12.6637 135.657 12.7832 136.254 12.9027 136.852 13.0819 137.33 13.261 137.688 13.4403 138.046 13.6194 138.285 13.8584 138.465 14.1571 138.644 14.4557 138.703 14.7544 138.703 15.1725 138.703 15.9491 138.405 16.6062 137.868 17.0243 137.269 17.5022 136.493 17.6814 135.478 17.6814Z" fill="#194261" transform="matrix(1 0 0 1.00016 548.026 339)"/><path d="M144.976 17.5619C144.438 17.6814 143.901 17.6814 143.423 17.6814 142.885 17.6814 142.467 17.5619 142.049 17.4425 141.63 17.2633 141.332 16.9646 141.152 16.6062 140.974 16.2478 140.854 15.8894 140.854 15.5309 140.854 15.1725 140.854 14.7544 140.854 14.2765L140.854 7.64601 142.826 7.64601 142.826 14.1571C142.826 14.4557 142.826 14.7544 142.826 14.9934 142.826 15.2322 142.885 15.4115 143.004 15.5907 143.183 15.8894 143.482 16.0088 143.841 16.0088 144.199 16.0088 144.617 16.0088 145.095 16.0088L145.095 17.6216ZM139.48 11.2898 139.48 9.79645 144.976 9.79645 144.976 11.2898 139.48 11.2898Z" fill="#194261" transform="matrix(1 0 0 1.00016 548.026 339)"/><path d="M156.086 17.5619 156.086 12.9624C156.086 12.4247 155.967 12.0663 155.727 11.7677 155.489 11.469 155.13 11.3496 154.712 11.3496 154.294 11.3496 154.174 11.4093 153.996 11.5287 153.816 11.6482 153.637 11.8274 153.518 12.0663 153.398 12.3053 153.339 12.5443 153.339 12.8429L152.502 12.3053C152.502 11.7677 152.621 11.2898 152.861 10.8716 153.099 10.4535 153.458 10.1549 153.876 9.91592 154.294 9.67698 154.772 9.55752 155.309 9.55752 156.205 9.55752 156.863 9.79645 157.341 10.3341 157.818 10.8716 157.998 11.5287 157.998 12.365L157.998 17.4425 156.027 17.4425ZM146.708 17.5619 146.708 9.79645 148.44 9.79645 148.44 12.365 148.679 12.365 148.679 17.5619 146.708 17.5619ZM151.368 17.5619 151.368 12.9624C151.368 12.4247 151.247 12.0663 151.009 11.7677 150.769 11.469 150.412 11.3496 149.993 11.3496 149.575 11.3496 149.276 11.469 149.038 11.7677 148.798 12.0663 148.679 12.4247 148.679 12.8429L147.843 12.2456C147.843 11.708 147.962 11.2898 148.201 10.8716 148.44 10.4535 148.798 10.1549 149.216 9.91592 149.635 9.67698 150.113 9.55752 150.65 9.55752 151.188 9.55752 151.785 9.67698 152.144 9.91592 152.562 10.1549 152.8 10.5133 153.04 10.9315 153.219 11.3496 153.339 11.8274 153.339 12.365L153.339 17.4425 151.368 17.4425Z" fill="#194261" transform="matrix(1 0 0 1.00016 548.026 339)"/><path d="M163.374 17.8009C162.597 17.8009 161.881 17.6216 161.283 17.2633 160.686 16.9049 160.208 16.4269 159.85 15.8296 159.491 15.2322 159.311 14.5155 159.311 13.739 159.311 12.9624 159.491 12.1261 159.789 11.5287 160.148 10.8716 160.566 10.3938 161.163 10.0951 161.761 9.73671 162.418 9.55752 163.194 9.55752 163.971 9.55752 164.688 9.73671 165.285 10.1549 165.883 10.5133 166.3 11.0509 166.54 11.7677 166.839 12.4845 166.898 13.261 166.839 14.2168L164.927 14.2168 164.927 13.5C164.927 12.7234 164.807 12.1261 164.568 11.7677 164.329 11.4093 163.912 11.23 163.314 11.23 162.716 11.23 162.179 11.4093 161.82 11.8274 161.522 12.2456 161.343 12.8429 161.343 13.6194 161.343 14.396 161.522 14.9337 161.82 15.2921 162.119 15.7102 162.597 15.8894 163.194 15.8894 163.791 15.8894 163.912 15.8296 164.15 15.6504 164.449 15.4712 164.628 15.2322 164.747 14.9337L166.719 15.4712C166.421 16.1881 165.943 16.7256 165.345 17.1438 164.688 17.5619 164.031 17.7412 163.254 17.7412ZM160.805 14.2168 160.805 12.7832 165.943 12.7832 165.943 14.2168 160.805 14.2168Z" fill="#194261" transform="matrix(1 0 0 1.00016 548.026 339)"/><path d="M173.588 17.5619 173.588 13.9181C173.588 13.739 173.588 13.5 173.588 13.261 173.588 12.9624 173.529 12.7234 173.409 12.4247 173.289 12.1261 173.17 11.8872 172.932 11.708 172.692 11.5287 172.394 11.4093 171.976 11.4093 171.557 11.4093 171.617 11.4093 171.438 11.469 171.258 11.469 171.08 11.6482 170.901 11.7677 170.721 11.8872 170.602 12.1261 170.482 12.4247 170.363 12.7234 170.303 13.0819 170.303 13.5597L169.168 13.0221C169.168 12.4247 169.287 11.8274 169.527 11.2898 169.765 10.7522 170.124 10.3341 170.661 9.97566 171.139 9.61724 171.796 9.49778 172.573 9.49778 173.35 9.49778 173.708 9.61724 174.066 9.79645 174.425 9.97566 174.723 10.2743 174.963 10.573 175.201 10.8716 175.32 11.23 175.44 11.5885 175.56 11.9469 175.56 12.2456 175.619 12.5443 175.619 12.8429 175.619 13.0221 175.619 13.1416L175.619 17.5022 173.648 17.5022ZM168.272 17.5619 168.272 9.79645 170.004 9.79645 170.004 12.365 170.243 12.365 170.243 17.5619 168.272 17.5619Z" fill="#194261" transform="matrix(1 0 0 1.00016 548.026 339)"/><path d="M182.071 17.5619C181.533 17.6814 180.996 17.6814 180.518 17.6814 179.98 17.6814 179.562 17.5619 179.144 17.4425 178.725 17.2633 178.427 16.9646 178.247 16.6062 178.068 16.2478 177.949 15.8894 177.949 15.5309 177.949 15.1725 177.949 14.7544 177.949 14.2765L177.949 7.64601 179.921 7.64601 179.921 14.1571C179.921 14.4557 179.921 14.7544 179.921 14.9934 179.921 15.2322 179.98 15.4115 180.099 15.5907 180.278 15.8894 180.577 16.0088 180.936 16.0088 181.294 16.0088 181.712 16.0088 182.19 16.0088L182.19 17.6216ZM176.575 11.2898 176.575 9.79645 182.071 9.79645 182.071 11.2898 176.575 11.2898Z" fill="#194261" transform="matrix(1 0 0 1.00016 548.026 339)"/><path d="M53.3428 34.8252 56.5088 24.4912 59.4358 24.4912 62.6017 34.8252 60.5708 34.8252 57.7633 25.6858 58.1217 25.6858 55.3739 34.8252 53.3428 34.8252ZM55.1946 32.6747 55.1946 30.823 60.6305 30.823 60.6305 32.6747 55.1946 32.6747Z" fill="#194261" transform="matrix(1 0 0 1.00016 548.026 339)"/><path d="M67.0221 35.0044C66.3052 35.0044 65.7079 34.8252 65.1703 34.4668 64.6327 34.1084 64.2146 33.6305 63.9159 32.9734 63.6172 32.3761 63.4977 31.6593 63.4977 30.8827 63.4977 30.1062 63.677 29.3893 63.9756 28.7921 64.2743 28.1947 64.6924 27.7168 65.2898 27.3584 65.8274 27 66.4845 26.8208 67.2012 26.8208 67.9181 26.8208 68.5752 27 69.053 27.3584 69.5309 27.7168 69.949 28.1947 70.188 28.8518 70.427 29.4491 70.6061 30.1659 70.6061 30.9425 70.6061 31.719 70.4867 32.4358 70.188 33.0331 69.949 33.6305 69.5309 34.1681 69.053 34.5265 68.5155 34.8849 67.9181 35.0641 67.1415 35.0641ZM67.3208 33.2721C67.7389 33.2721 68.0973 33.1527 68.3362 32.9734 68.5752 32.7943 68.8141 32.4956 68.9336 32.1371 69.053 31.7787 69.1128 31.3606 69.1128 30.8827 69.1128 30.4049 69.1128 29.9867 68.9336 29.6283 68.8141 29.2699 68.6349 28.9712 68.3959 28.7921 68.157 28.6128 67.7986 28.4934 67.4402 28.4934 67.0818 28.4934 66.6637 28.6128 66.365 28.7921 66.0663 29.0309 65.8871 29.2699 65.7677 29.6283 65.6482 29.9867 65.5884 30.4049 65.5884 30.823 65.5884 31.2411 65.6482 31.6593 65.7677 32.0177 65.8871 32.3761 66.1261 32.6747 66.365 32.854 66.6039 33.0928 66.9624 33.1527 67.3805 33.1527ZM69.1128 34.8252 69.1128 29.5088 68.8739 29.5088 68.8739 24.4912 70.8451 24.4912 70.8451 34.8252 69.1128 34.8252Z" fill="#194261" transform="matrix(1 0 0 1.00016 548.026 339)"/><path d="M82.1946 34.8252 82.1946 30.2256C82.1946 29.688 82.0752 29.3296 81.8362 29.0309 81.5973 28.7322 81.2389 28.6128 80.8208 28.6128 80.4026 28.6128 80.2831 28.6725 80.1039 28.7921 79.9247 28.9115 79.7455 29.0907 79.6261 29.3296 79.5065 29.5686 79.4468 29.8075 79.4468 30.1062L78.6105 29.5686C78.6105 29.0309 78.73 28.5531 78.9689 28.1349 79.2079 27.7168 79.5664 27.4181 79.9845 27.1792 80.4026 26.9403 80.8805 26.8208 81.4181 26.8208 82.3141 26.8208 82.9712 27.0597 83.449 27.5974 83.927 28.1349 84.1061 28.7921 84.1061 29.6283L84.1061 34.7057 82.1349 34.7057ZM72.8164 34.8252 72.8164 27.0597 74.5486 27.0597 74.5486 29.6283 74.7876 29.6283 74.7876 34.8252 72.8164 34.8252ZM77.4756 34.8252 77.4756 30.2256C77.4756 29.688 77.3561 29.3296 77.1171 29.0309 76.8783 28.7322 76.5199 28.6128 76.1017 28.6128 75.6836 28.6128 75.3849 28.7322 75.1459 29.0309 74.907 29.3296 74.7876 29.688 74.7876 30.1062L73.9512 29.5088C73.9512 28.9712 74.0708 28.5531 74.3096 28.1349 74.5486 27.7168 74.907 27.4181 75.3252 27.1792 75.7433 26.9403 76.2212 26.8208 76.7587 26.8208 77.2964 26.8208 77.8937 26.9403 78.2521 27.1792 78.6703 27.4181 78.9092 27.7765 79.1482 28.1947 79.3871 28.6128 79.4468 29.0907 79.4468 29.6283L79.4468 34.7057 77.4756 34.7057Z" fill="#194261" transform="matrix(1 0 0 1.00016 548.026 339)"/><path d="M86.1371 25.9845 86.1371 24.2522 88.1083 24.2522 88.1083 25.9845 86.1371 25.9845ZM86.1371 34.8252 86.1371 27.0597 88.1083 27.0597 88.1083 34.8252 86.1371 34.8252Z" fill="#194261" transform="matrix(1 0 0 1.00016 548.026 339)"/><path d="M95.5751 34.8252 95.5751 31.1814C95.5751 31.0022 95.5751 30.7633 95.5751 30.5243 95.5751 30.2256 95.5154 29.9867 95.3959 29.688 95.2765 29.3893 95.157 29.1504 94.918 28.9712 94.6792 28.7921 94.3805 28.6725 93.9623 28.6725 93.5442 28.6725 93.6039 28.6725 93.4247 28.7322 93.2455 28.7322 93.0663 28.9115 92.8871 29.0309 92.7079 29.1504 92.5884 29.3893 92.4689 29.688 92.3495 29.9867 92.2898 30.3451 92.2898 30.823L91.1548 30.2853C91.1548 29.688 91.2742 29.0907 91.5132 28.5531 91.7521 28.0155 92.1105 27.5974 92.6482 27.2389 93.1261 26.8805 93.7831 26.761 94.5596 26.761 95.3362 26.761 95.6349 26.8805 96.053 27.0597 96.4114 27.2389 96.7101 27.5375 96.949 27.8362 97.188 28.1349 97.3074 28.4934 97.4269 28.8518 97.5464 29.2102 97.5464 29.5088 97.6061 29.8075 97.6061 30.1062 97.6061 30.2853 97.6061 30.4049L97.6061 34.7655 95.6349 34.7655ZM90.2588 34.8252 90.2588 27.0597 91.9911 27.0597 91.9911 29.6283 92.23 29.6283 92.23 34.8252 90.2588 34.8252Z" fill="#194261" transform="matrix(1 0 0 1.00016 548.026 339)"/><path d="M99.5176 25.9845 99.5176 24.2522 101.489 24.2522 101.489 25.9845 99.5176 25.9845ZM99.5176 34.8252 99.5176 27.0597 101.489 27.0597 101.489 34.8252 99.5176 34.8252Z" fill="#194261" transform="matrix(1 0 0 1.00016 548.026 339)"/><path d="M106.685 35.0044C105.73 35.0044 104.894 34.7655 104.296 34.3474 103.699 33.9292 103.341 33.2721 103.221 32.4358L105.192 32.1371C105.252 32.4956 105.432 32.7943 105.73 32.9734 106.029 33.1527 106.387 33.2721 106.806 33.2721 107.223 33.2721 107.462 33.2124 107.641 33.0928 107.821 32.9734 107.94 32.7345 107.94 32.4956 107.94 32.2566 107.94 32.1969 107.821 32.1371 107.761 32.0177 107.582 31.958 107.283 31.8384 107.044 31.719 106.626 31.5996 106.029 31.48 105.372 31.3009 104.894 31.1216 104.535 30.9425 104.177 30.7633 103.879 30.5243 103.699 30.2256 103.52 29.9269 103.46 29.6283 103.46 29.2102 103.46 28.7921 103.58 28.2544 103.819 27.896 104.057 27.5375 104.416 27.2389 104.894 27.0597 105.372 26.8805 105.91 26.761 106.507 26.761 107.104 26.761 107.641 26.8805 108.119 27.0597 108.597 27.2389 108.956 27.5375 109.254 27.8362 109.553 28.1947 109.732 28.6128 109.791 29.0309L107.821 29.3893C107.821 29.0907 107.641 28.8518 107.462 28.7322 107.223 28.5531 106.925 28.4934 106.566 28.4336 106.208 28.4336 105.91 28.4336 105.67 28.5531 105.432 28.6725 105.372 28.8518 105.372 29.0907 105.372 29.3296 105.372 29.3296 105.491 29.4491 105.61 29.5686 105.789 29.6283 106.088 29.7478 106.387 29.8672 106.865 29.9867 107.462 30.1062 108.06 30.2853 108.538 30.4646 108.896 30.6438 109.254 30.823 109.493 31.0619 109.672 31.3606 109.852 31.6593 109.912 31.958 109.912 32.3761 109.912 33.1527 109.613 33.8097 109.075 34.2278 108.478 34.7057 107.701 34.8849 106.685 34.8849Z" fill="#194261" transform="matrix(1 0 0 1.00016 548.026 339)"/><path d="M116.183 34.8252C115.646 34.9447 115.108 34.9447 114.63 34.9447 114.093 34.9447 113.674 34.8252 113.256 34.7057 112.839 34.5265 112.54 34.2278 112.361 33.8694 112.181 33.511 112.062 33.1527 112.062 32.7943 112.062 32.4358 112.062 32.0177 112.062 31.5397L112.062 24.9093 114.033 24.9093 114.033 31.4203C114.033 31.719 114.033 32.0177 114.033 32.2566 114.033 32.4956 114.093 32.6747 114.212 32.854 114.392 33.1527 114.69 33.2721 115.049 33.2721 115.407 33.2721 115.826 33.2721 116.303 33.2721L116.303 34.8849ZM110.628 28.5531 110.628 27.0597 116.124 27.0597 116.124 28.5531 110.628 28.5531Z" fill="#194261" transform="matrix(1 0 0 1.00016 548.026 339)"/><path d="M117.916 34.8252 117.916 27.0597 119.648 27.0597 119.648 28.9712 119.469 28.7322C119.588 28.4934 119.708 28.1947 119.887 28.0155 120.066 27.7765 120.245 27.5974 120.485 27.4778 120.663 27.3584 120.903 27.2987 121.082 27.2389 121.321 27.1792 121.56 27.1194 121.738 27.1194 121.978 27.1194 122.216 27.1194 122.456 27.1194L122.456 28.9712C122.216 28.9115 121.978 28.9115 121.679 28.9115 121.381 28.9115 121.141 28.9712 120.903 29.0907 120.663 29.2102 120.485 29.3296 120.305 29.5088 120.126 29.688 120.007 29.8672 119.947 30.1062 119.887 30.3451 119.828 30.584 119.828 30.8827L119.828 34.8252 117.857 34.8252Z" fill="#194261" transform="matrix(1 0 0 1.00016 548.026 339)"/><path d="M125.8 35.0044C125.263 35.0044 124.785 34.8849 124.368 34.7057 124.009 34.4668 123.71 34.2278 123.471 33.8694 123.291 33.511 123.172 33.0928 123.172 32.6747 123.172 32.2566 123.172 31.958 123.352 31.719 123.471 31.4203 123.65 31.1814 123.89 30.9425 124.128 30.7035 124.487 30.5243 124.905 30.3451 125.203 30.2256 125.562 30.1659 125.921 30.0465 126.339 29.9867 126.756 29.8672 127.294 29.8075 127.772 29.7478 128.37 29.6283 128.967 29.5686L128.25 29.9269C128.25 29.4491 128.13 29.1504 127.892 28.9115 127.652 28.6725 127.294 28.6128 126.756 28.6128 126.219 28.6128 126.159 28.6725 125.861 28.7921 125.562 28.9115 125.323 29.1504 125.203 29.5088L123.412 28.9712C123.591 28.3141 123.949 27.8362 124.546 27.4181 125.084 27 125.8 26.8208 126.756 26.8208 127.712 26.8208 128.071 26.9403 128.608 27.1194 129.146 27.3584 129.564 27.7168 129.803 28.1947 129.982 28.4934 130.042 28.7921 130.102 29.0309 130.102 29.3296 130.102 29.6283 130.102 29.9867L130.102 34.7057 128.37 34.7057 128.37 33.0928 128.608 33.4513C128.25 33.9889 127.832 34.3474 127.354 34.5862 126.936 34.8252 126.339 34.9447 125.681 34.9447ZM126.219 33.511C126.577 33.511 126.876 33.4513 127.115 33.3318 127.354 33.2124 127.533 33.0331 127.712 32.9137 127.832 32.7345 127.951 32.615 128.011 32.4956 128.13 32.2566 128.19 32.0177 128.19 31.7787 128.19 31.48 128.19 31.2411 128.19 31.0619L128.787 31.1814C128.19 31.3009 127.712 31.3606 127.354 31.4203 126.996 31.48 126.697 31.5397 126.458 31.5996 126.219 31.5996 126.04 31.719 125.861 31.7787 125.681 31.8384 125.502 31.958 125.383 32.0177 125.263 32.0774 125.203 32.1969 125.144 32.3163 125.144 32.4358 125.084 32.5553 125.084 32.6747 125.084 32.7943 125.084 33.0331 125.203 33.1527 125.323 33.2721 125.443 33.3915 125.562 33.4513 125.741 33.511 125.921 33.5708 126.159 33.5708Z" fill="#194261" transform="matrix(1 0 0 1.00016 548.026 339)"/><path d="M136.732 34.8252C136.194 34.9447 135.657 34.9447 135.179 34.9447 134.641 34.9447 134.223 34.8252 133.805 34.7057 133.387 34.5265 133.088 34.2278 132.91 33.8694 132.73 33.511 132.61 33.1527 132.61 32.7943 132.61 32.4358 132.61 32.0177 132.61 31.5397L132.61 24.9093 134.582 24.9093 134.582 31.4203C134.582 31.719 134.582 32.0177 134.582 32.2566 134.582 32.4956 134.641 32.6747 134.761 32.854 134.94 33.1527 135.238 33.2721 135.597 33.2721 135.956 33.2721 136.374 33.2721 136.852 33.2721L136.852 34.8849ZM131.177 28.5531 131.177 27.0597 136.672 27.0597 136.672 28.5531 131.177 28.5531Z" fill="#194261" transform="matrix(1 0 0 1.00016 548.026 339)"/><path d="M138.584 25.9845 138.584 24.2522 140.555 24.2522 140.555 25.9845 138.584 25.9845ZM138.584 34.8252 138.584 27.0597 140.555 27.0597 140.555 34.8252 138.584 34.8252Z" fill="#194261" transform="matrix(1 0 0 1.00016 548.026 339)"/><path d="M146.17 35.0044C145.394 35.0044 144.677 34.8252 144.139 34.4668 143.542 34.1084 143.064 33.6305 142.765 33.0331 142.467 32.4358 142.287 31.719 142.287 30.8827 142.287 30.0465 142.467 29.3893 142.765 28.7322 143.124 28.1349 143.542 27.6571 144.139 27.2987 144.736 26.9403 145.394 26.761 146.17 26.761 146.947 26.761 147.663 26.9403 148.201 27.2987 148.798 27.6571 149.276 28.1349 149.575 28.7322 149.934 29.3296 150.053 30.0465 150.053 30.823 150.053 31.5996 149.874 32.3163 149.575 32.9734 149.216 33.5708 148.798 34.0487 148.201 34.4071 147.604 34.7655 146.947 34.9447 146.17 34.9447ZM146.17 33.2124C146.827 33.2124 147.245 32.9734 147.544 32.5553 147.843 32.1371 148.022 31.5996 148.022 30.9425 148.022 30.2853 147.843 29.688 147.544 29.2699 147.245 28.8518 146.767 28.6725 146.17 28.6725 145.573 28.6725 145.394 28.7921 145.095 28.9712 144.796 29.1504 144.617 29.4491 144.498 29.7478 144.379 30.1062 144.318 30.4646 144.318 30.9425 144.318 31.6593 144.498 32.1969 144.796 32.615 145.095 33.0331 145.573 33.2124 146.17 33.2124Z" fill="#194261" transform="matrix(1 0 0 1.00016 548.026 339)"/><path d="M156.982 34.8252 156.982 31.1814C156.982 31.0022 156.982 30.7633 156.982 30.5243 156.982 30.2256 156.923 29.9867 156.803 29.688 156.683 29.3893 156.564 29.1504 156.325 28.9712 156.086 28.7921 155.787 28.6725 155.37 28.6725 154.951 28.6725 155.011 28.6725 154.831 28.7322 154.652 28.7322 154.474 28.9115 154.294 29.0309 154.115 29.1504 153.996 29.3893 153.876 29.688 153.756 29.9867 153.697 30.3451 153.697 30.823L152.562 30.2853C152.562 29.688 152.681 29.0907 152.921 28.5531 153.159 28.0155 153.518 27.5974 154.055 27.2389 154.533 26.8805 155.19 26.761 155.967 26.761 156.743 26.761 157.042 26.8805 157.46 27.0597 157.818 27.2389 158.117 27.5375 158.357 27.8362 158.595 28.1349 158.714 28.4934 158.834 28.8518 158.954 29.2102 158.954 29.5088 159.013 29.8075 159.013 30.1062 159.013 30.2853 159.013 30.4049L159.013 34.7655 157.042 34.7655ZM151.666 34.8252 151.666 27.0597 153.398 27.0597 153.398 29.6283 153.637 29.6283 153.637 34.8252 151.666 34.8252Z" fill="#194261" transform="matrix(1 0 0 1.00016 548.026 339)"/></g></svg>