<svg width="185" height="42" xmlns="http://www.w3.org/2000/svg" xmlns:xlink="http://www.w3.org/1999/xlink" xml:space="preserve" overflow="hidden"><g transform="translate(-735 -263)"><path d="M13.6518 2.32499 35.1729 2.32499 35.1729 5.18651 13.6518 5.18651 13.6518 2.32499Z" fill="#194261" transform="matrix(1 0 0 1.00216 735.425 263)"/><path d="M17.2288 30.3441 38.0344 30.3441 38.0344 33.2056 17.2288 33.2056 17.2288 30.3441Z" fill="#194261" transform="matrix(1 0 0 1.00216 735.425 263)"/><path d="M17.2288 8.82303 38.9882 8.82303 40.7171 11.6846 17.2288 11.6846 17.2288 8.82303Z" fill="#194261" transform="matrix(1 0 0 1.00216 735.425 263)"/><path d="M22.9518 22.4153 43.9959 22.4153 45.9036 19.5537 22.9518 19.5537 22.9518 22.4153Z" fill="#194261" transform="matrix(1 0 0 1.00216 735.425 263)"/><path d="M13.6518 36.7825 34.4575 36.7825 34.4575 39.644 13.6518 39.644 13.6518 36.7825Z" fill="#194261" transform="matrix(1 0 0 1.00216 735.425 263)"/><path d="M16.0961 3.75575 5.30574 22.4153 2.80191 20.9845 13.6518 2.32499 16.1557 3.75575Z" fill="#194261" transform="matrix(1 0 0 1.00216 735.425 263)"/><path d="M23.3095 3.75575 12.5192 22.4153 10.0153 20.9845 20.8057 2.32499 23.3095 3.75575Z" fill="#194261" transform="matrix(1 0 0 1.00216 735.425 263)"/><path d="M27.0056 15.9768 23.3095 22.4153 20.8057 20.9845 24.5018 14.5461 27.0056 15.9768Z" fill="#194261" transform="matrix(1 0 0 1.00216 735.425 263)"/><path d="M13.6518 39.644 2.86152 20.9845 5.36536 19.5537 16.1557 38.2132 13.6518 39.644Z" fill="#194261" transform="matrix(1 0 0 1.00216 735.425 263)"/><path d="M20.8057 39.644 10.0153 20.9845 12.5192 19.5537 23.3095 38.2132 20.8057 39.644Z" fill="#194261" transform="matrix(1 0 0 1.00216 735.425 263)"/><path d="M24.5614 27.4825 20.8057 20.9845 23.3095 19.5537 27.0652 26.0518 24.5614 27.4825Z" fill="#194261" transform="matrix(1 0 0 1.00216 735.425 263)"/><path d="M29.271 31.0594 35.471 20.5076 38.3921 21.0441 31.7748 32.5498 29.271 31.1191Z" fill="#194261" transform="matrix(1 0 0 1.00216 735.425 263)"/><path d="M31.9537 38.2132 42.744 19.5537 46.0824 19.5537C46.0824 19.5537 34.5171 39.644 34.5171 39.644L32.0133 38.2132Z" fill="#194261" transform="matrix(1 0 0 1.00216 735.425 263)"/><path d="M35.1729 2.32499 39.8229 10.1942 37.319 11.6249 32.6691 3.75575 35.1729 2.32499Z" fill="#194261" transform="matrix(1 0 0 1.00216 735.425 263)"/><path d="M58.2439 17.7653C57.5881 17.7653 56.992 17.6461 56.3958 17.4076 55.7997 17.1691 55.2632 16.8114 54.8459 16.3941 54.3689 15.9172 54.0112 15.3807 53.7728 14.7249 53.5343 14.0692 53.4151 13.2942 53.4151 12.3999 53.4151 11.5057 53.6536 10.3134 54.0709 9.47879 54.4882 8.7038 55.0843 8.04803 55.8593 7.63073 56.5747 7.21342 57.4093 6.97496 58.3035 6.97496 59.6151 6.97496 60.6881 7.27304 61.4631 7.9288 62.2381 8.52495 62.715 9.41918 63.0131 10.5519L61.0458 10.8499C60.867 10.2538 60.5689 9.77687 60.1516 9.41918 59.7343 9.06149 59.1978 8.88264 58.542 8.88264 57.8862 8.88264 57.3497 9.00187 56.9324 9.29995 56.5151 9.59802 56.1574 10.0153 55.9785 10.5519 55.7401 11.0884 55.6805 11.6846 55.6805 12.4595 55.6805 13.2345 55.7997 13.7711 55.9785 14.3076 56.217 14.8441 56.5151 15.2615 56.9324 15.5595 57.3497 15.8576 57.8862 15.9768 58.542 16.0364 58.9593 16.0364 59.3766 15.9768 59.7343 15.798 60.092 15.6191 60.3901 15.3807 60.6285 15.023 60.867 14.6653 61.0458 14.248 61.165 13.6518L59.5554 13.6518 59.5554 12.1615 63.2516 12.1615C63.2516 12.2211 63.2516 12.3403 63.2516 12.5192 63.2516 12.698 63.2516 12.7576 63.2516 12.8172 63.2516 13.8307 63.0727 14.6653 62.6554 15.4403 62.2381 16.2153 61.7016 16.8114 60.9266 17.2288 60.2112 17.6461 59.317 17.8845 58.3631 17.8845Z" fill="#194261" transform="matrix(1 0 0 1.00216 735.425 263)"/><path d="M64.6823 17.5268 64.6823 6.97496 66.6496 6.97496 66.6496 17.5268 64.6823 17.5268Z" fill="#194261" transform="matrix(1 0 0 1.00216 735.425 263)"/><path d="M72.3131 17.7653C71.5381 17.7653 70.8227 17.5864 70.2862 17.2288 69.69 16.8711 69.2131 16.3941 68.915 15.798 68.6169 15.2018 68.4381 14.4865 68.4381 13.6518 68.4381 12.8172 68.6169 12.1615 68.915 11.5057 69.2727 10.9096 69.69 10.4326 70.2862 10.0749 70.8823 9.71725 71.5381 9.53841 72.3131 9.53841 73.0881 9.53841 73.8034 9.71725 74.34 10.0749 74.9361 10.4326 75.413 10.9096 75.7111 11.5057 76.0688 12.1019 76.188 12.8172 76.188 13.5922 76.188 14.3672 76.0092 15.0826 75.7111 15.7384 75.3534 16.3345 74.9361 16.8114 74.34 17.1691 73.7438 17.5268 73.0881 17.7057 72.3131 17.7057ZM72.3131 15.9172C72.9688 15.9172 73.3861 15.6788 73.6842 15.2615 73.9823 14.8441 74.1611 14.3076 74.1611 13.6518 74.1611 12.9961 73.9823 12.3999 73.6842 11.9826 73.3861 11.5653 72.9092 11.3865 72.3131 11.3865 71.7169 11.3865 71.5381 11.5057 71.24 11.6846 70.9419 11.8634 70.7631 12.1615 70.6438 12.4595 70.5246 12.8172 70.465 13.1749 70.465 13.6518 70.465 14.3672 70.6438 14.9038 70.9419 15.3211 71.24 15.7384 71.7169 15.9172 72.3131 15.9172Z" fill="#194261" transform="matrix(1 0 0 1.00216 735.425 263)"/><path d="M81.613 17.7653C80.838 17.7653 80.1823 17.5864 79.7053 17.2288 79.1688 16.8711 78.8111 16.3941 78.513 15.7384 78.2746 15.1422 78.0957 14.4268 78.0957 13.6518 78.0957 12.8769 78.215 12.1615 78.513 11.5653 78.8111 10.9692 79.1688 10.4326 79.6457 10.0749 80.1226 9.71725 80.7784 9.53841 81.4938 9.53841 82.2092 9.53841 82.8649 9.71725 83.4015 10.0749 83.938 10.4326 84.3553 10.9096 84.6534 11.5057 84.9515 12.1019 85.1303 12.8172 85.1303 13.5922 85.1303 14.3672 84.9515 15.0826 84.6534 15.6788 84.3553 16.2749 83.938 16.8114 83.4015 17.1691 82.8649 17.5268 82.2688 17.7057 81.5534 17.7057ZM77.7977 17.5268 77.7977 7.21342 79.7649 7.21342 79.7649 12.2211 79.5265 12.2211 79.5265 17.5268 77.7977 17.5268ZM81.3149 15.9768C81.7322 15.9768 82.0899 15.8576 82.3284 15.6788 82.5669 15.4999 82.8053 15.2018 82.9245 14.8441 83.0438 14.4865 83.1034 14.0692 83.1034 13.6518 83.1034 13.2345 83.0438 12.8172 82.9245 12.4595 82.8053 12.1019 82.5669 11.8038 82.3284 11.6249 82.0303 11.3865 81.6726 11.3269 81.2553 11.3269 80.838 11.3269 80.5399 11.4461 80.2419 11.6249 80.0034 11.8038 79.8246 12.1019 79.7053 12.4595 79.5861 12.8172 79.5265 13.2345 79.5265 13.7115 79.5265 14.1884 79.5265 14.6057 79.7053 14.9634 79.8246 15.3211 80.0034 15.6191 80.2419 15.798 80.4803 15.9768 80.838 16.0961 81.3149 16.0961Z" fill="#194261" transform="matrix(1 0 0 1.00216 735.425 263)"/><path d="M88.8861 17.7653C88.3495 17.7653 87.8726 17.6461 87.4553 17.4672 87.0976 17.2288 86.7995 16.9903 86.5611 16.6326 86.3822 16.2749 86.263 15.8576 86.263 15.4403 86.263 15.023 86.263 14.7249 86.4418 14.4865 86.5611 14.1884 86.7399 13.9499 86.9784 13.7115 87.2168 13.473 87.5745 13.2942 87.9918 13.1153 88.2899 12.9961 88.6476 12.9365 89.0053 12.8172 89.4226 12.7576 89.8399 12.6384 90.3764 12.5788 90.8533 12.5192 91.4495 12.3999 92.0456 12.3403L91.3303 12.698C91.3303 12.2211 91.211 11.923 90.9726 11.6846 90.7341 11.4461 90.3764 11.3865 89.8399 11.3865 89.3034 11.3865 89.2437 11.4461 88.9457 11.5653 88.6476 11.6846 88.4091 11.923 88.2899 12.2807L86.5014 11.7442C86.6803 11.0884 87.038 10.6115 87.6341 10.1942 88.1707 9.77687 88.8861 9.59802 89.8399 9.59802 90.7937 9.59802 91.1514 9.71725 91.688 9.8961 92.2245 10.1346 92.6418 10.4923 92.8803 10.9692 93.0591 11.2672 93.1187 11.5653 93.1783 11.8038 93.1783 12.1019 93.1783 12.3999 93.1783 12.7576L93.1783 17.4672 91.4495 17.4672 91.4495 15.8576 91.688 16.2153C91.3303 16.7518 90.913 17.1095 90.436 17.348 90.0187 17.5864 89.4226 17.7057 88.7668 17.7057ZM89.3034 16.2153C89.661 16.2153 89.9591 16.1557 90.1976 16.0364 90.436 15.9172 90.6149 15.7384 90.7937 15.6191 90.913 15.4403 91.0322 15.3211 91.0918 15.2018 91.211 14.9634 91.2707 14.7249 91.2707 14.4865 91.2707 14.1884 91.2707 13.9499 91.2707 13.7711L91.8668 13.8903C91.2707 14.0095 90.7937 14.0692 90.436 14.1288 90.0784 14.1884 89.7803 14.248 89.5418 14.3076 89.3034 14.3076 89.1245 14.4268 88.9457 14.4865 88.7668 14.5461 88.588 14.6653 88.4687 14.7249 88.3495 14.7845 88.2899 14.9038 88.2303 15.023 88.2303 15.1422 88.1707 15.2615 88.1707 15.3807 88.1707 15.4999 88.1707 15.7384 88.2899 15.8576 88.4091 15.9768 88.5284 16.0961 88.6476 16.1557 88.8264 16.2153 89.0053 16.2749 89.2437 16.2749Z" fill="#194261" transform="matrix(1 0 0 1.00216 735.425 263)"/><path d="M95.2649 17.5268 95.2649 6.97496 97.2322 6.97496 97.2322 17.5268 95.2649 17.5268Z" fill="#194261" transform="matrix(1 0 0 1.00216 735.425 263)"/><path d="M102.359 17.5268 102.359 7.21342 104.326 7.21342 104.326 17.5268 102.359 17.5268Z" fill="#194261" transform="matrix(1 0 0 1.00216 735.425 263)"/><path d="M111.778 17.5268 111.778 13.8903C111.778 13.7115 111.778 13.473 111.778 13.2345 111.778 12.9365 111.719 12.698 111.599 12.3999 111.48 12.1019 111.361 11.8634 111.122 11.6846 110.884 11.5057 110.586 11.3865 110.169 11.3865 109.751 11.3865 109.811 11.3865 109.632 11.4461 109.453 11.4461 109.274 11.6249 109.096 11.7442 108.917 11.8634 108.797 12.1019 108.678 12.3999 108.559 12.698 108.499 13.0557 108.499 13.5326L107.367 12.9961C107.367 12.3999 107.486 11.8038 107.724 11.2672 107.963 10.7307 108.321 10.3134 108.857 9.95572 109.334 9.59802 109.99 9.47879 110.765 9.47879 111.54 9.47879 111.838 9.59802 112.255 9.77687 112.613 9.95572 112.911 10.2538 113.149 10.5519 113.388 10.8499 113.507 11.2076 113.626 11.5653 113.746 11.923 113.746 12.2211 113.805 12.5192 113.805 12.8172 113.805 12.9961 113.805 13.1153L113.805 17.4672 111.838 17.4672ZM106.472 17.5268 106.472 9.77687 108.201 9.77687 108.201 12.3403 108.44 12.3403 108.44 17.5268 106.472 17.5268Z" fill="#194261" transform="matrix(1 0 0 1.00216 735.425 263)"/><path d="M117.68 17.5268 114.878 9.77687 116.846 9.77687 118.694 15.1422 120.542 9.77687 122.509 9.77687 119.707 17.5268 117.74 17.5268Z" fill="#194261" transform="matrix(1 0 0 1.00216 735.425 263)"/><path d="M127.099 17.7653C126.324 17.7653 125.609 17.5864 125.013 17.2288 124.417 16.8711 123.94 16.3941 123.582 15.798 123.224 15.2018 123.045 14.4865 123.045 13.7115 123.045 12.9365 123.224 12.1019 123.522 11.5057 123.88 10.8499 124.297 10.373 124.894 10.0749 125.49 9.71725 126.145 9.53841 126.92 9.53841 127.695 9.53841 128.411 9.71725 129.007 10.1346 129.603 10.4923 130.02 11.0288 130.259 11.7442 130.557 12.4595 130.617 13.2345 130.557 14.1884L128.649 14.1884 128.649 13.473C128.649 12.698 128.53 12.1019 128.292 11.7442 128.053 11.3865 127.636 11.2076 127.04 11.2076 126.444 11.2076 125.907 11.3865 125.549 11.8038 125.251 12.2211 125.072 12.8172 125.072 13.5922 125.072 14.3672 125.251 14.9038 125.549 15.2615 125.847 15.6788 126.324 15.8576 126.92 15.8576 127.517 15.8576 127.636 15.798 127.874 15.6191 128.172 15.4403 128.351 15.2018 128.47 14.9038L130.438 15.4403C130.14 16.1557 129.663 16.6922 129.067 17.1095 128.411 17.5268 127.755 17.7057 126.98 17.7057ZM124.536 14.1884 124.536 12.7576 129.663 12.7576 129.663 14.1884 124.536 14.1884Z" fill="#194261" transform="matrix(1 0 0 1.00216 735.425 263)"/><path d="M135.207 17.7653C134.253 17.7653 133.419 17.5268 132.822 17.1095 132.226 16.6922 131.868 16.0364 131.749 15.2018L133.717 14.9038C133.776 15.2615 133.955 15.5595 134.253 15.7384 134.551 15.9172 134.909 16.0364 135.326 16.0364 135.743 16.0364 135.982 15.9768 136.161 15.8576 136.34 15.7384 136.459 15.4999 136.459 15.2615 136.459 15.023 136.459 14.9634 136.34 14.9038 136.28 14.7845 136.101 14.7249 135.803 14.6057 135.565 14.4865 135.147 14.3672 134.551 14.248 133.895 14.0692 133.419 13.8903 133.061 13.7115 132.703 13.5326 132.405 13.2942 132.226 12.9961 132.047 12.698 131.988 12.3999 131.988 11.9826 131.988 11.5653 132.107 11.0288 132.345 10.6711 132.584 10.3134 132.942 10.0153 133.419 9.83648 133.895 9.65764 134.432 9.53841 135.028 9.53841 135.624 9.53841 136.161 9.65764 136.638 9.83648 137.115 10.0153 137.472 10.3134 137.77 10.6115 138.068 10.9692 138.247 11.3865 138.307 11.8038L136.34 12.1615C136.34 11.8634 136.161 11.6249 135.982 11.5057 135.743 11.3269 135.505 11.2672 135.088 11.2076 134.73 11.2076 134.432 11.2076 134.193 11.3269 133.955 11.4461 133.895 11.6249 133.895 11.8634 133.895 12.1019 133.895 12.1019 134.015 12.2211 134.134 12.3403 134.313 12.3999 134.611 12.5192 134.909 12.6384 135.386 12.7576 135.982 12.8769 136.578 13.0557 137.055 13.2345 137.413 13.4134 137.77 13.5922 138.009 13.8307 138.188 14.1288 138.367 14.4268 138.426 14.7249 138.426 15.1422 138.426 15.9172 138.128 16.573 137.592 16.9903 136.995 17.4672 136.22 17.6461 135.207 17.6461Z" fill="#194261" transform="matrix(1 0 0 1.00216 735.425 263)"/><path d="M144.686 17.5268C144.149 17.6461 143.613 17.6461 143.136 17.6461 142.599 17.6461 142.182 17.5268 141.765 17.4076 141.347 17.2288 141.049 16.9307 140.87 16.573 140.692 16.2153 140.572 15.8576 140.572 15.4999 140.572 15.1422 140.572 14.7249 140.572 14.248L140.572 7.63073 142.54 7.63073 142.54 14.1288C142.54 14.4268 142.54 14.7249 142.54 14.9634 142.54 15.2018 142.599 15.3807 142.718 15.5595 142.897 15.8576 143.195 15.9768 143.553 15.9768 143.911 15.9768 144.328 15.9768 144.805 15.9768L144.805 17.5864ZM139.201 11.2672 139.201 9.77687 144.686 9.77687 144.686 11.2672 139.201 11.2672Z" fill="#194261" transform="matrix(1 0 0 1.00216 735.425 263)"/><path d="M155.774 17.5268 155.774 12.9365C155.774 12.3999 155.655 12.0422 155.416 11.7442 155.178 11.4461 154.82 11.3269 154.403 11.3269 153.986 11.3269 153.866 11.3865 153.688 11.5057 153.509 11.6249 153.33 11.8038 153.211 12.0422 153.091 12.2807 153.032 12.5192 153.032 12.8172L152.197 12.2807C152.197 11.7442 152.316 11.2672 152.555 10.8499 152.793 10.4326 153.151 10.1346 153.568 9.8961 153.986 9.65764 154.463 9.53841 154.999 9.53841 155.893 9.53841 156.549 9.77687 157.026 10.3134 157.503 10.8499 157.682 11.5057 157.682 12.3403L157.682 17.4076 155.715 17.4076ZM146.415 17.5268 146.415 9.77687 148.143 9.77687 148.143 12.3403 148.382 12.3403 148.382 17.5268 146.415 17.5268ZM151.065 17.5268 151.065 12.9365C151.065 12.3999 150.945 12.0422 150.707 11.7442 150.468 11.4461 150.111 11.3269 149.693 11.3269 149.276 11.3269 148.978 11.4461 148.74 11.7442 148.501 12.0422 148.382 12.3999 148.382 12.8172L147.547 12.2211C147.547 11.6846 147.666 11.2672 147.905 10.8499 148.143 10.4326 148.501 10.1346 148.918 9.8961 149.336 9.65764 149.813 9.53841 150.349 9.53841 150.886 9.53841 151.482 9.65764 151.84 9.8961 152.257 10.1346 152.495 10.4923 152.734 10.9096 152.913 11.3269 153.032 11.8038 153.032 12.3403L153.032 17.4076 151.065 17.4076Z" fill="#194261" transform="matrix(1 0 0 1.00216 735.425 263)"/><path d="M163.047 17.7653C162.272 17.7653 161.557 17.5864 160.961 17.2288 160.365 16.8711 159.888 16.3941 159.53 15.798 159.172 15.2018 158.993 14.4865 158.993 13.7115 158.993 12.9365 159.172 12.1019 159.47 11.5057 159.828 10.8499 160.245 10.373 160.841 10.0749 161.438 9.71725 162.093 9.53841 162.868 9.53841 163.643 9.53841 164.359 9.71725 164.955 10.1346 165.551 10.4923 165.968 11.0288 166.207 11.7442 166.505 12.4595 166.564 13.2345 166.505 14.1884L164.597 14.1884 164.597 13.473C164.597 12.698 164.478 12.1019 164.239 11.7442 164.001 11.3865 163.584 11.2076 162.988 11.2076 162.391 11.2076 161.855 11.3865 161.497 11.8038 161.199 12.2211 161.02 12.8172 161.02 13.5922 161.02 14.3672 161.199 14.9038 161.497 15.2615 161.795 15.6788 162.272 15.8576 162.868 15.8576 163.464 15.8576 163.584 15.798 163.822 15.6191 164.12 15.4403 164.299 15.2018 164.418 14.9038L166.386 15.4403C166.088 16.1557 165.611 16.6922 165.014 17.1095 164.359 17.5268 163.703 17.7057 162.928 17.7057ZM160.484 14.1884 160.484 12.7576 165.611 12.7576 165.611 14.1884 160.484 14.1884Z" fill="#194261" transform="matrix(1 0 0 1.00216 735.425 263)"/><path d="M173.241 17.5268 173.241 13.8903C173.241 13.7115 173.241 13.473 173.241 13.2345 173.241 12.9365 173.182 12.698 173.062 12.3999 172.943 12.1019 172.824 11.8634 172.586 11.6846 172.347 11.5057 172.049 11.3865 171.632 11.3865 171.214 11.3865 171.274 11.3865 171.095 11.4461 170.916 11.4461 170.738 11.6249 170.559 11.7442 170.38 11.8634 170.261 12.1019 170.141 12.3999 170.022 12.698 169.963 13.0557 169.963 13.5326L168.83 12.9961C168.83 12.3999 168.949 11.8038 169.188 11.2672 169.426 10.7307 169.784 10.3134 170.32 9.95572 170.797 9.59802 171.453 9.47879 172.228 9.47879 173.003 9.47879 173.361 9.59802 173.718 9.77687 174.076 9.95572 174.374 10.2538 174.613 10.5519 174.851 10.8499 174.97 11.2076 175.089 11.5653 175.209 11.923 175.209 12.2211 175.268 12.5192 175.268 12.8172 175.268 12.9961 175.268 13.1153L175.268 17.4672 173.301 17.4672ZM167.936 17.5268 167.936 9.77687 169.664 9.77687 169.664 12.3403 169.903 12.3403 169.903 17.5268 167.936 17.5268Z" fill="#194261" transform="matrix(1 0 0 1.00216 735.425 263)"/><path d="M181.707 17.5268C181.17 17.6461 180.634 17.6461 180.157 17.6461 179.62 17.6461 179.203 17.5268 178.786 17.4076 178.368 17.2288 178.07 16.9307 177.891 16.573 177.712 16.2153 177.593 15.8576 177.593 15.4999 177.593 15.1422 177.593 14.7249 177.593 14.248L177.593 7.63073 179.561 7.63073 179.561 14.1288C179.561 14.4268 179.561 14.7249 179.561 14.9634 179.561 15.2018 179.62 15.3807 179.739 15.5595 179.918 15.8576 180.216 15.9768 180.574 15.9768 180.932 15.9768 181.349 15.9768 181.826 15.9768L181.826 17.5864ZM176.222 11.2672 176.222 9.77687 181.707 9.77687 181.707 11.2672 176.222 11.2672Z" fill="#194261" transform="matrix(1 0 0 1.00216 735.425 263)"/><path d="M53.2362 34.7556 56.3958 24.4422 59.317 24.4422 62.4766 34.7556 60.4497 34.7556 57.6478 25.6345 58.0055 25.6345 55.2632 34.7556 53.2362 34.7556ZM55.0843 32.6094 55.0843 30.7614 60.5093 30.7614 60.5093 32.6094 55.0843 32.6094Z" fill="#194261" transform="matrix(1 0 0 1.00216 735.425 263)"/><path d="M66.8881 34.9344C66.1727 34.9344 65.5766 34.7556 65.04 34.3979 64.5035 34.0402 64.0862 33.5633 63.7881 32.9075 63.49 32.3114 63.3708 31.596 63.3708 30.821 63.3708 30.046 63.5497 29.3306 63.8477 28.7345 64.1458 28.1383 64.5631 27.6614 65.1593 27.3037 65.6958 26.946 66.3516 26.7672 67.0669 26.7672 67.7823 26.7672 68.4381 26.946 68.915 27.3037 69.3919 27.6614 69.8092 28.1383 70.0477 28.7941 70.2862 29.3902 70.465 30.1056 70.465 30.8806 70.465 31.6556 70.3458 32.371 70.0477 32.9671 69.8092 33.5633 69.3919 34.0998 68.915 34.4575 68.3785 34.8152 67.7823 34.994 67.0073 34.994ZM67.1862 33.2056C67.6035 33.2056 67.9612 33.0864 68.1996 32.9075 68.4381 32.7287 68.6765 32.4306 68.7958 32.0729 68.915 31.7152 68.9746 31.2979 68.9746 30.821 68.9746 30.3441 68.9746 29.9268 68.7958 29.5691 68.6765 29.2114 68.4977 28.9133 68.2592 28.7345 68.0208 28.5556 67.6631 28.4364 67.3054 28.4364 66.9477 28.4364 66.5304 28.5556 66.2323 28.7345 65.9342 28.9729 65.7554 29.2114 65.6362 29.5691 65.517 29.9268 65.4573 30.3441 65.4573 30.7614 65.4573 31.1787 65.517 31.596 65.6362 31.9537 65.7554 32.3114 65.9939 32.6094 66.2323 32.7883 66.4708 33.0267 66.8285 33.0864 67.2458 33.0864ZM68.9746 34.7556 68.9746 29.4498 68.7362 29.4498 68.7362 24.4422 70.7035 24.4422 70.7035 34.7556 68.9746 34.7556Z" fill="#194261" transform="matrix(1 0 0 1.00216 735.425 263)"/><path d="M82.0303 34.7556 82.0303 30.1652C82.0303 29.6287 81.9111 29.271 81.6726 28.9729 81.4342 28.6748 81.0765 28.5556 80.6592 28.5556 80.2419 28.5556 80.1226 28.6152 79.9438 28.7345 79.7649 28.8537 79.5861 29.0325 79.4669 29.271 79.3476 29.5095 79.288 29.7479 79.288 30.046L78.4534 29.5095C78.4534 28.9729 78.5726 28.496 78.8111 28.0787 79.0496 27.6614 79.4073 27.3633 79.8246 27.1249 80.2419 26.8864 80.7188 26.7672 81.2553 26.7672 82.1496 26.7672 82.8053 27.0056 83.2822 27.5422 83.7592 28.0787 83.938 28.7345 83.938 29.5691L83.938 34.6363 81.9707 34.6363ZM72.6708 34.7556 72.6708 27.0056 74.3996 27.0056 74.3996 29.5691 74.6381 29.5691 74.6381 34.7556 72.6708 34.7556ZM77.3207 34.7556 77.3207 30.1652C77.3207 29.6287 77.2015 29.271 76.963 28.9729 76.7246 28.6748 76.3669 28.5556 75.9496 28.5556 75.5323 28.5556 75.2342 28.6748 74.9957 28.9729 74.7573 29.271 74.6381 29.6287 74.6381 30.046L73.8034 29.4498C73.8034 28.9133 73.9227 28.496 74.1611 28.0787 74.3996 27.6614 74.7573 27.3633 75.1746 27.1249 75.5919 26.8864 76.0688 26.7672 76.6053 26.7672 77.1419 26.7672 77.738 26.8864 78.0957 27.1249 78.513 27.3633 78.7515 27.721 78.99 28.1383 79.2284 28.5556 79.288 29.0325 79.288 29.5691L79.288 34.6363 77.3207 34.6363Z" fill="#194261" transform="matrix(1 0 0 1.00216 735.425 263)"/><path d="M85.9649 25.9326 85.9649 24.2037 87.9322 24.2037 87.9322 25.9326 85.9649 25.9326ZM85.9649 34.7556 85.9649 27.0056 87.9322 27.0056 87.9322 34.7556 85.9649 34.7556Z" fill="#194261" transform="matrix(1 0 0 1.00216 735.425 263)"/><path d="M95.3841 34.7556 95.3841 31.1191C95.3841 30.9402 95.3841 30.7018 95.3841 30.4633 95.3841 30.1652 95.3245 29.9268 95.2052 29.6287 95.086 29.3306 94.9668 29.0921 94.7283 28.9133 94.4899 28.7345 94.1918 28.6152 93.7745 28.6152 93.3572 28.6152 93.4168 28.6152 93.2379 28.6748 93.0591 28.6748 92.8803 28.8537 92.7014 28.9729 92.5226 29.0921 92.4033 29.3306 92.2841 29.6287 92.1649 29.9268 92.1053 30.2844 92.1053 30.7614L90.9726 30.2248C90.9726 29.6287 91.0918 29.0325 91.3303 28.496 91.5687 27.9595 91.9264 27.5422 92.463 27.1845 92.9399 26.8268 93.5956 26.7075 94.3706 26.7075 95.1456 26.7075 95.4437 26.8268 95.861 27.0056 96.2187 27.1845 96.5168 27.4825 96.7552 27.7806 96.9937 28.0787 97.1129 28.4364 97.2322 28.7941 97.3514 29.1518 97.3514 29.4498 97.411 29.7479 97.411 30.046 97.411 30.2248 97.411 30.3441L97.411 34.696 95.4437 34.696ZM90.0784 34.7556 90.0784 27.0056 91.8072 27.0056 91.8072 29.5691 92.0456 29.5691 92.0456 34.7556 90.0784 34.7556Z" fill="#194261" transform="matrix(1 0 0 1.00216 735.425 263)"/><path d="M99.3187 25.9326 99.3187 24.2037 101.286 24.2037 101.286 25.9326 99.3187 25.9326ZM99.3187 34.7556 99.3187 27.0056 101.286 27.0056 101.286 34.7556 99.3187 34.7556Z" fill="#194261" transform="matrix(1 0 0 1.00216 735.425 263)"/><path d="M106.472 34.9344C105.519 34.9344 104.684 34.696 104.088 34.2787 103.492 33.8614 103.134 33.2056 103.015 32.371L104.982 32.0729C105.042 32.4306 105.221 32.7287 105.519 32.9075 105.817 33.0864 106.174 33.2056 106.592 33.2056 107.009 33.2056 107.247 33.146 107.426 33.0267 107.605 32.9075 107.724 32.6691 107.724 32.4306 107.724 32.1921 107.724 32.1325 107.605 32.0729 107.546 31.9537 107.367 31.8941 107.069 31.7748 106.83 31.6556 106.413 31.5364 105.817 31.4171 105.161 31.2383 104.684 31.0594 104.326 30.8806 103.969 30.7018 103.671 30.4633 103.492 30.1652 103.313 29.8671 103.253 29.5691 103.253 29.1518 103.253 28.7345 103.373 28.1979 103.611 27.8402 103.849 27.4825 104.207 27.1845 104.684 27.0056 105.161 26.8268 105.698 26.7075 106.294 26.7075 106.89 26.7075 107.426 26.8268 107.903 27.0056 108.38 27.1845 108.738 27.4825 109.036 27.7806 109.334 28.1383 109.513 28.5556 109.572 28.9729L107.605 29.3306C107.605 29.0325 107.426 28.7941 107.247 28.6748 107.009 28.496 106.711 28.4364 106.353 28.3768 105.996 28.3768 105.698 28.3768 105.459 28.496 105.221 28.6152 105.161 28.7941 105.161 29.0325 105.161 29.271 105.161 29.271 105.28 29.3902 105.399 29.5095 105.578 29.5691 105.876 29.6883 106.174 29.8075 106.651 29.9268 107.247 30.046 107.844 30.2248 108.321 30.4037 108.678 30.5825 109.036 30.7614 109.274 30.9998 109.453 31.2979 109.632 31.596 109.692 31.8941 109.692 32.3114 109.692 33.0864 109.394 33.7421 108.857 34.1594 108.261 34.6363 107.486 34.8152 106.472 34.8152Z" fill="#194261" transform="matrix(1 0 0 1.00216 735.425 263)"/><path d="M115.951 34.7556C115.415 34.8748 114.878 34.8748 114.401 34.8748 113.865 34.8748 113.447 34.7556 113.03 34.6363 112.613 34.4575 112.315 34.1594 112.136 33.8017 111.957 33.444 111.838 33.0864 111.838 32.7287 111.838 32.371 111.838 31.9537 111.838 31.4767L111.838 24.8595 113.805 24.8595 113.805 31.3575C113.805 31.6556 113.805 31.9537 113.805 32.1921 113.805 32.4306 113.865 32.6094 113.984 32.7883 114.163 33.0864 114.461 33.2056 114.819 33.2056 115.176 33.2056 115.594 33.2056 116.071 33.2056L116.071 34.8152ZM110.407 28.496 110.407 27.0056 115.892 27.0056 115.892 28.496 110.407 28.496Z" fill="#194261" transform="matrix(1 0 0 1.00216 735.425 263)"/><path d="M117.68 34.7556 117.68 27.0056 119.409 27.0056 119.409 28.9133 119.23 28.6748C119.349 28.4364 119.469 28.1383 119.647 27.9595 119.826 27.721 120.005 27.5422 120.244 27.4229 120.422 27.3037 120.661 27.2441 120.84 27.1845 121.078 27.1249 121.317 27.0652 121.495 27.0652 121.734 27.0652 121.972 27.0652 122.211 27.0652L122.211 28.9133C121.972 28.8537 121.734 28.8537 121.436 28.8537 121.138 28.8537 120.899 28.9133 120.661 29.0325 120.422 29.1518 120.244 29.271 120.065 29.4498 119.886 29.6287 119.767 29.8075 119.707 30.046 119.647 30.2844 119.588 30.5229 119.588 30.821L119.588 34.7556 117.621 34.7556Z" fill="#194261" transform="matrix(1 0 0 1.00216 735.425 263)"/><path d="M125.549 34.9344C125.013 34.9344 124.536 34.8152 124.119 34.6363 123.761 34.3979 123.463 34.1594 123.224 33.8017 123.045 33.444 122.926 33.0267 122.926 32.6094 122.926 32.1921 122.926 31.8941 123.105 31.6556 123.224 31.3575 123.403 31.1191 123.642 30.8806 123.88 30.6421 124.238 30.4633 124.655 30.2844 124.953 30.1652 125.311 30.1056 125.669 29.9864 126.086 29.9268 126.503 29.8075 127.04 29.7479 127.517 29.6883 128.113 29.5691 128.709 29.5095L127.994 29.8671C127.994 29.3902 127.874 29.0921 127.636 28.8537 127.397 28.6152 127.04 28.5556 126.503 28.5556 125.967 28.5556 125.907 28.6152 125.609 28.7345 125.311 28.8537 125.072 29.0921 124.953 29.4498L123.165 28.9133C123.344 28.2575 123.701 27.7806 124.297 27.3633 124.834 26.946 125.549 26.7672 126.503 26.7672 127.457 26.7672 127.815 26.8864 128.351 27.0652 128.888 27.3037 129.305 27.6614 129.544 28.1383 129.722 28.4364 129.782 28.7345 129.842 28.9729 129.842 29.271 129.842 29.5691 129.842 29.9268L129.842 34.6363 128.113 34.6363 128.113 33.0267 128.351 33.3844C127.994 33.921 127.576 34.2787 127.099 34.5171 126.682 34.7556 126.086 34.8748 125.43 34.8748ZM125.967 33.444C126.324 33.444 126.622 33.3844 126.861 33.2652 127.099 33.146 127.278 32.9671 127.457 32.8479 127.576 32.6691 127.695 32.5498 127.755 32.4306 127.874 32.1921 127.934 31.9537 127.934 31.7152 127.934 31.4171 127.934 31.1787 127.934 30.9998L128.53 31.1191C127.934 31.2383 127.457 31.2979 127.099 31.3575 126.742 31.4171 126.444 31.4767 126.205 31.5364 125.967 31.5364 125.788 31.6556 125.609 31.7152 125.43 31.7748 125.251 31.8941 125.132 31.9537 125.013 32.0133 124.953 32.1325 124.894 32.2517 124.894 32.371 124.834 32.4902 124.834 32.6094 124.834 32.7287 124.834 32.9671 124.953 33.0864 125.072 33.2056 125.192 33.3248 125.311 33.3844 125.49 33.444 125.669 33.5037 125.907 33.5037Z" fill="#194261" transform="matrix(1 0 0 1.00216 735.425 263)"/><path d="M136.459 34.7556C135.922 34.8748 135.386 34.8748 134.909 34.8748 134.372 34.8748 133.955 34.7556 133.538 34.6363 133.12 34.4575 132.822 34.1594 132.644 33.8017 132.465 33.444 132.345 33.0864 132.345 32.7287 132.345 32.371 132.345 31.9537 132.345 31.4767L132.345 24.8595 134.313 24.8595 134.313 31.3575C134.313 31.6556 134.313 31.9537 134.313 32.1921 134.313 32.4306 134.372 32.6094 134.492 32.7883 134.67 33.0864 134.968 33.2056 135.326 33.2056 135.684 33.2056 136.101 33.2056 136.578 33.2056L136.578 34.8152ZM130.915 28.496 130.915 27.0056 136.399 27.0056 136.399 28.496 130.915 28.496Z" fill="#194261" transform="matrix(1 0 0 1.00216 735.425 263)"/><path d="M138.307 25.9326 138.307 24.2037 140.274 24.2037 140.274 25.9326 138.307 25.9326ZM138.307 34.7556 138.307 27.0056 140.274 27.0056 140.274 34.7556 138.307 34.7556Z" fill="#194261" transform="matrix(1 0 0 1.00216 735.425 263)"/><path d="M145.878 34.9344C145.103 34.9344 144.388 34.7556 143.851 34.3979 143.255 34.0402 142.778 33.5633 142.48 32.9671 142.182 32.371 142.003 31.6556 142.003 30.821 142.003 29.9864 142.182 29.3306 142.48 28.6748 142.838 28.0787 143.255 27.6018 143.851 27.2441 144.447 26.8864 145.103 26.7075 145.878 26.7075 146.653 26.7075 147.368 26.8864 147.905 27.2441 148.501 27.6018 148.978 28.0787 149.276 28.6748 149.634 29.271 149.753 29.9864 149.753 30.7614 149.753 31.5364 149.574 32.2517 149.276 32.9075 148.918 33.5037 148.501 33.9806 147.905 34.3383 147.309 34.696 146.653 34.8748 145.878 34.8748ZM145.878 33.146C146.534 33.146 146.951 32.9075 147.249 32.4902 147.547 32.0729 147.726 31.5364 147.726 30.8806 147.726 30.2248 147.547 29.6287 147.249 29.2114 146.951 28.7941 146.474 28.6152 145.878 28.6152 145.282 28.6152 145.103 28.7345 144.805 28.9133 144.507 29.0921 144.328 29.3902 144.209 29.6883 144.09 30.046 144.03 30.4037 144.03 30.8806 144.03 31.596 144.209 32.1325 144.507 32.5498 144.805 32.9671 145.282 33.146 145.878 33.146Z" fill="#194261" transform="matrix(1 0 0 1.00216 735.425 263)"/><path d="M156.668 34.7556 156.668 31.1191C156.668 30.9402 156.668 30.7018 156.668 30.4633 156.668 30.1652 156.609 29.9268 156.49 29.6287 156.37 29.3306 156.251 29.0921 156.013 28.9133 155.774 28.7345 155.476 28.6152 155.059 28.6152 154.641 28.6152 154.701 28.6152 154.522 28.6748 154.343 28.6748 154.165 28.8537 153.986 28.9729 153.807 29.0921 153.688 29.3306 153.568 29.6287 153.449 29.9268 153.39 30.2844 153.39 30.7614L152.257 30.2248C152.257 29.6287 152.376 29.0325 152.615 28.496 152.853 27.9595 153.211 27.5422 153.747 27.1845 154.224 26.8268 154.88 26.7075 155.655 26.7075 156.43 26.7075 156.728 26.8268 157.145 27.0056 157.503 27.1845 157.801 27.4825 158.04 27.7806 158.278 28.0787 158.397 28.4364 158.516 28.7941 158.636 29.1518 158.636 29.4498 158.695 29.7479 158.695 30.046 158.695 30.2248 158.695 30.3441L158.695 34.696 156.728 34.696ZM151.363 34.7556 151.363 27.0056 153.091 27.0056 153.091 29.5691 153.33 29.5691 153.33 34.7556 151.363 34.7556Z" fill="#194261" transform="matrix(1 0 0 1.00216 735.425 263)"/></g></svg>