<svg width="17" height="17" xmlns="http://www.w3.org/2000/svg" xmlns:xlink="http://www.w3.org/1999/xlink" xml:space="preserve" overflow="hidden"><g transform="translate(-301 -484)"><path d="M303.714 487.927 313.8 487.927C314.111 487.927 314.362 487.675 314.362 487.365 314.362 487.054 314.111 486.802 313.8 486.802L303.714 486.802C303.403 486.802 303.151 487.054 303.151 487.365 303.151 487.675 303.403 487.927 303.714 487.927Z" fill="#A6A6A6"/><path d="M303.714 490.327 313.8 490.327C314.111 490.327 314.362 490.075 314.362 489.764 314.362 489.454 314.111 489.202 313.8 489.202L303.714 489.202C303.403 489.202 303.151 489.454 303.151 489.764 303.151 490.075 303.403 490.327 303.714 490.327Z" fill="#A6A6A6"/><path d="M309.065 491.602 303.714 491.602C303.403 491.602 303.151 491.853 303.151 492.164 303.151 492.475 303.403 492.726 303.714 492.726L309.065 492.726C309.375 492.726 309.627 492.475 309.627 492.164 309.627 491.853 309.375 491.602 309.065 491.602Z" fill="#A6A6A6"/><path d="M317.969 500.153 316.498 497.241 317.067 497.014C317.217 496.954 317.342 496.782 317.353 496.621L317.401 495.891C317.409 495.769 317.471 495.578 317.536 495.475L317.926 494.856C318.012 494.719 318.012 494.506 317.926 494.37L317.536 493.751C317.471 493.647 317.409 493.457 317.401 493.334L317.353 492.604C317.344 492.467 317.25 492.321 317.13 492.244L317.13 485.476C317.13 484.856 316.625 484.351 316.005 484.351L302.125 484.351C301.505 484.351 301 484.856 301 485.476L301 495.111C301 495.732 301.505 496.236 302.125 496.236L310.972 496.236 310.998 496.621C311.008 496.782 311.134 496.954 311.283 497.014L311.817 497.227 310.34 500.153C310.294 500.243 310.307 500.297 310.325 500.327 310.336 500.345 310.365 500.377 310.424 500.377 310.454 500.377 310.489 500.369 310.526 500.353L311.737 499.846C311.767 499.834 311.802 499.827 311.839 499.827 311.928 499.827 312.019 499.864 312.07 499.921L312.651 500.565C312.7 500.619 312.76 500.649 312.82 500.649 312.9 500.649 312.971 500.597 313.011 500.511L314.151 498.054C314.153 498.054 314.155 498.054 314.158 498.054L315.297 500.511C315.337 500.597 315.409 500.649 315.488 500.649 315.549 500.649 315.609 500.619 315.657 500.565L316.238 499.921C316.29 499.864 316.38 499.827 316.469 499.827 316.506 499.827 316.542 499.834 316.572 499.846L317.782 500.353C317.82 500.369 317.854 500.377 317.884 500.377 317.944 500.377 317.972 500.345 317.984 500.327 318.002 500.297 318.014 500.243 317.969 500.153ZM302.125 485.476 316.005 485.476 316.005 491.649 315.565 491.12C315.485 491.023 315.338 490.958 315.2 490.958 315.166 490.958 315.134 490.962 315.104 490.97L314.394 491.151C314.281 491.179 314.069 491.179 313.956 491.151L313.247 490.97C313.217 490.962 313.184 490.958 313.151 490.958 313.012 490.958 312.865 491.023 312.785 491.12L312.317 491.683C312.239 491.777 312.077 491.895 311.963 491.94L311.283 492.212C311.134 492.271 311.008 492.444 310.998 492.604L310.949 493.334C310.941 493.457 310.879 493.647 310.814 493.751L310.424 494.37C310.338 494.506 310.338 494.719 310.424 494.856L310.585 495.111 302.125 495.111 302.125 485.476ZM314.175 497.004C312.854 497.004 311.784 495.934 311.784 494.613 311.784 493.292 312.854 492.221 314.175 492.221 315.496 492.221 316.567 493.292 316.567 494.613 316.567 495.934 315.496 497.004 314.175 497.004Z" fill="#A6A6A6"/></g></svg>