<svg width="251" height="252" xmlns="http://www.w3.org/2000/svg" xmlns:xlink="http://www.w3.org/1999/xlink" xml:space="preserve" overflow="hidden"><g transform="translate(-645 -180)"><path d="M54.0483 60.1518C46.0085 68.1916 40.5424 78.0943 38.0667 88.904L42.1111 88.904C46.7193 70.4467 60.5194 55.5926 78.3885 49.5137L78.3885 45.3712C69.2946 48.2146 60.9852 53.2149 54.0483 60.1518Z" stroke="#A6A6A6" stroke-width="0.245218" fill="#BFBFBF" transform="matrix(1 0 0 1.00398 645 180)"/><path d="M235.288 132.559C235.288 160.405 212.713 183.004 184.867 183.029L144.84 183.029 144.84 172.244 184.867 172.244C195.456 172.244 205.408 168.101 212.884 160.625 220.385 153.125 224.503 143.173 224.503 132.559 224.503 121.97 220.385 111.994 212.884 104.518 205.384 97.0419 195.407 92.8994 184.818 92.8994 182 92.8994 179.23 93.1936 176.533 93.7573 172.857 94.5417 169.327 95.8163 166.042 97.6057 165.797 93.8309 165.233 90.0806 164.376 86.4283L164.376 86.4038C163.493 82.58 162.268 78.8542 160.723 75.202 157.194 66.8925 152.169 59.4164 145.747 52.9943 139.325 46.5723 131.873 41.5474 123.539 38.0177 114.935 34.3899 105.793 32.5271 96.3556 32.5271 86.9186 32.5271 77.7757 34.3654 69.1721 38.0177 60.8626 41.5229 53.3865 46.5723 46.9645 52.9943 40.5424 59.4164 35.5175 66.8925 31.9878 75.202 28.3355 83.8056 26.4972 92.9484 26.4972 102.385 26.4972 111.822 28.3355 120.965 31.9878 129.569 35.493 137.878 40.5424 145.354 46.9645 151.777 53.3865 158.199 60.8626 163.224 69.1721 166.753 77.7757 170.381 86.9186 172.244 96.3556 172.244L106.087 172.244 106.087 183.029 96.0369 183.029C51.6462 182.857 15.712 146.825 15.712 102.385 15.712 57.8477 51.8178 21.7419 96.3556 21.7419 134.251 21.7419 166.042 47.8714 174.671 83.0947L174.671 83.1192C177.955 82.4574 181.338 82.0897 184.818 82.0897 212.688 82.1143 235.288 104.69 235.288 132.559Z" stroke="#A6A6A6" stroke-width="0.245218" fill="#BFBFBF" transform="matrix(1 0 0 1.00398 645 180)"/><path d="M169.842 155.919 164.302 155.919 127.412 119.029 127.412 229.234 123.49 229.234 123.49 119.078 86.6244 155.919 81.0848 155.919 125.451 111.553Z" stroke="#A6A6A6" stroke-width="0.245218" fill="#BFBFBF" transform="matrix(1 0 0 1.00398 645 180)"/></g></svg>