<svg width="1830" height="1578" xmlns="http://www.w3.org/2000/svg" xmlns:xlink="http://www.w3.org/1999/xlink" xml:space="preserve" overflow="hidden"><defs><clipPath id="clip0"><rect x="2721" y="337" width="1830" height="1578"/></clipPath></defs><g clip-path="url(#clip0)" transform="translate(-2721 -337)"><path d="M3179 337 4089 337 4089 458.002 3179 458.002 3179 337Z" fill="#FFFFFF" fill-rule="evenodd" fill-opacity="0.219608"/><path d="M3330 1521 4209 1521 4209 1642 3330 1642 3330 1521Z" fill="#FFFFFF" fill-rule="evenodd" fill-opacity="0.219608"/><path d="M3330 612 4249.91 612 4323 733.002 3330 733.002 3330 612Z" fill="#FFFFFF" fill-rule="evenodd" fill-opacity="0.219608"/><path d="M3572 1186 4461.38 1186 4542 1065 3572 1065 3572 1186Z" fill="#FFFFFF" fill-rule="evenodd" fill-opacity="0.219608"/><path d="M3179 1793 4058 1793 4058 1914 3179 1914 3179 1793Z" fill="#FFFFFF" fill-rule="evenodd" fill-opacity="0.219608"/><path d="M3282.48 397.462 2826.75 1186 2721 1125.54 3179.25 337 3285 397.462Z" fill="#FFFFFF" fill-rule="evenodd" fill-opacity="0.219608"/><path d="M3587 397.462 3130.85 1186 3025 1125.54 3481.15 337 3587 397.462Z" fill="#FFFFFF" fill-rule="evenodd" fill-opacity="0.219608"/><path d="M3743 914.363 3586.81 1186 3481 1125.64 3637.19 854 3743 914.363Z" fill="#FFFFFF" fill-rule="evenodd" fill-opacity="0.219608"/><path d="M3179.15 1914 2723 1125.46 2828.85 1065 3285 1853.54 3179.15 1914Z" fill="#FFFFFF" fill-rule="evenodd" fill-opacity="0.219608"/><path d="M3481.15 1914 3025 1125.46 3130.85 1065 3587 1853.54 3481.15 1914Z" fill="#FFFFFF" fill-rule="evenodd" fill-opacity="0.219608"/><path d="M3640 1400 3481 1125.45 3587 1065 3746 1339.55 3640 1400Z" fill="#FFFFFF" fill-rule="evenodd" fill-opacity="0.219608"/><path d="M3839 1551.01 4101.38 1105 4225 1127.68 3944.96 1614 3839 1553.53Z" fill="#FFFFFF" fill-rule="evenodd" fill-opacity="0.219608"/><path d="M3953 1853.54 4408.94 1065 4550 1065C4550 1065 4061.32 1914 4061.32 1914L3955.52 1853.54Z" fill="#FFFFFF" fill-rule="evenodd" fill-opacity="0.219608"/><path d="M4088.7 337 4285 669.539 4179.3 730 3983 397.461 4088.7 337Z" fill="#FFFFFF" fill-rule="evenodd" fill-opacity="0.219608"/></g></svg>